<svg xmlns="http://www.w3.org/2000/svg" width="1200" height="420" viewBox="0 0 1200 420" role="img" aria-labelledby="title desc">
  <title id="title">FillOnce</title><desc id="desc">Documents become an editable, evidence-backed PDF form.</desc>
  <defs><linearGradient id="bg" x2="1" y2="1"><stop stop-color="#10251b"/><stop offset="1" stop-color="#176b48"/></linearGradient><filter id="shadow"><feDropShadow dx="0" dy="10" stdDeviation="12" flood-opacity=".18"/></filter></defs>
  <rect width="1200" height="420" rx="28" fill="url(#bg)"/>
  <circle cx="1038" cy="-24" r="235" fill="#c9f26b" opacity=".13"/><circle cx="1100" cy="70" r="125" fill="none" stroke="#c9f26b" stroke-width="2" opacity=".22"/>
  <g transform="translate(76 74)"><rect width="25" height="25" rx="7" fill="#c9f26b"/><rect x="11" y="-11" width="25" height="25" rx="7" fill="#54a97b" opacity=".92"/><text x="0" y="77" fill="#fff" font-family="Inter,Segoe UI,sans-serif" font-size="67" font-weight="800" letter-spacing="-3">FillOnce</text><text x="2" y="119" fill="#dbe9df" font-family="Inter,Segoe UI,sans-serif" font-size="22">Your documents already know the answers.</text><path d="M2 154h342" stroke="#c9f26b" stroke-width="7" stroke-linecap="round"/><text x="2" y="207" fill="#fff" font-family="Inter,Segoe UI,sans-serif" font-size="17" font-weight="700">LOCAL-FIRST PDF FORM FILLING</text><text x="2" y="237" fill="#a8c2b2" font-family="Inter,Segoe UI,sans-serif" font-size="15">Evidence for every value · editable output · human review</text></g>
  <g transform="translate(725 50) rotate(3 170 155)" filter="url(#shadow)"><rect width="358" height="320" rx="14" fill="#fbfcf7"/><rect x="27" y="30" width="150" height="15" rx="4" fill="#17231d"/><rect x="27" y="58" width="74" height="7" rx="3" fill="#176b48"/><g fill="#66746c" font-family="Inter,Segoe UI,sans-serif" font-size="9"><text x="27" y="103">FULL NAME</text><text x="27" y="154">EMAIL ADDRESS</text><text x="27" y="205">CURRENT ORGANIZATION</text><text x="27" y="256">COUNTRY</text></g><g fill="#fff" stroke="#dce4d9"><rect x="27" y="111" width="304" height="26" rx="5"/><rect x="27" y="162" width="304" height="26" rx="5"/><rect x="27" y="213" width="304" height="26" rx="5"/><rect x="27" y="264" width="304" height="26" rx="5"/></g><g fill="#17231d" font-family="Inter,Segoe UI,sans-serif" font-size="11"><text x="38" y="129">Maya Okafor</text><text x="38" y="180">maya.okafor@example.com</text><text x="38" y="231">Open Civic Lab</text><text x="38" y="282">Canada</text></g><g fill="#176b48"><circle cx="318" cy="124" r="7"/><circle cx="318" cy="175" r="7"/><circle cx="318" cy="226" r="7"/><circle cx="318" cy="277" r="7"/></g><g fill="none" stroke="#fff" stroke-width="1.5"><path d="m314 124 3 3 5-6"/><path d="m314 175 3 3 5-6"/><path d="m314 226 3 3 5-6"/><path d="m314 277 3 3 5-6"/></g></g>
</svg>
